<?xml version="1.0" standalone="no"?>
<!DOCTYPE svg PUBLIC "-//W3C//DTD SVG 20010904//EN"
 "http://www.w3.org/TR/2001/REC-SVG-20010904/DTD/svg10.dtd">
<svg version="1.0" xmlns="http://www.w3.org/2000/svg"
 width="700.000000pt" height="700.000000pt" viewBox="0 0 700.000000 700.000000"
 preserveAspectRatio="xMidYMid meet">
<metadata>
Created by potrace 1.11, written by Peter Selinger 2001-2013
</metadata>
<g transform="translate(0.000000,700.000000) scale(0.100000,-0.100000)"
fill="#000000" stroke="none">
<path d="M5178 6245 c-2 -1 -41 -5 -88 -8 -129 -9 -231 -45 -340 -118 -43 -29
-243 -186 -410 -322 -8 -6 -92 -73 -185 -147 -93 -74 -178 -142 -188 -150 -45
-37 -64 -110 -43 -170 l14 -41 -42 -22 c-71 -38 -148 -67 -226 -87 -115 -29
-110 -30 -125 14 -17 49 -51 84 -97 99 -27 9 -355 12 -1394 11 -747 -1 -1366
-4 -1374 -6 -8 -3 -28 -9 -45 -13 -114 -32 -232 -145 -281 -270 -19 -49 -19
-100 -19 -2341 l0 -2290 38 -76 c62 -127 170 -214 302 -243 35 -8 443 -11
1406 -10 l1356 0 41 27 c46 31 70 70 74 117 2 25 8 33 28 37 116 25 198 52
272 88 l88 42 26 -27 c45 -47 138 -58 194 -22 22 15 278 219 290 233 3 3 50
41 105 84 55 44 129 104 165 134 101 84 101 84 165 134 94 74 144 92 250 92
73 0 100 -5 145 -24 46 -20 204 -140 450 -339 19 -16 109 -88 200 -160 91 -72
172 -137 180 -144 8 -7 35 -28 60 -47 25 -19 47 -37 50 -40 20 -21 198 -156
225 -170 55 -28 144 -11 187 37 48 52 45 -77 44 2583 -1 2315 -2 2497 -18
2526 -9 16 -34 44 -55 61 -202 164 -312 251 -329 263 -12 8 -41 31 -65 52 -58
48 -487 390 -592 471 -94 74 -170 118 -242 141 -51 16 -192 46 -197 41z"/>
</g>
</svg>
